<svg xmlns="http://www.w3.org/2000/svg" viewBox="0 0 258.31 255.88"><defs><style>.cls-1,.cls-7{fill:#21afe4;}.cls-2{fill:#5497b2;}.cls-3{fill:#3cacc0;}.cls-4{fill:#4ba4ba;}.cls-5,.cls-6{fill:none;}.cls-5{stroke:#231f20;stroke-width:4px;}.cls-7{opacity:0.68;}</style></defs><g id="Layer_3" data-name="Layer 3"><polygon class="cls-1" points="13.08 57.12 68.53 77.77 53.72 86.93 56.78 223.04 3.91 191.24 2.04 65.63 13.08 57.12"/><polygon class="cls-1" points="102.23 91.86 138.73 107.73 112.42 107.36 102.23 91.86"/><polygon class="cls-1" points="207.73 131.87 256.31 145.1 256.31 189.32 162.42 252.61 68.53 134.29 114.23 148.72 145.25 148.72 174.87 190.7 209.59 169.78 207.73 131.87"/><polygon class="cls-2" points="13.08 57.12 68.53 77.77 85.89 67.02 103.83 92.56 138.73 107.73 150.23 107.73 191.21 124.59 101.21 2.68 13.08 57.12"/><polygon class="cls-2" points="207.73 131.87 256.31 145.1 256.31 68.51 155.95 5.46 128.94 31.27 153.55 64.72 159.42 57.12 205.76 87.44 207.73 131.87"/><circle class="cls-2" cx="127.96" cy="127.01" r="6.93"/><polygon class="cls-3" points="4.62 63.63 11.34 82.59 11.34 185.39 48.1 207.19 55.51 167.36 56.78 223.04 3.93 192.76 2.04 65.63 4.62 63.63"/><polygon class="cls-3" points="89.72 142.08 119.08 162.76 143.08 160.21 174.87 206.68 218.66 174.38 215.33 133.94 207.73 131.87 209.59 169.78 174.87 190.7 145.25 148.72 114.23 148.72 89.72 142.08"/><path class="cls-4" d="M298.16,328.83l25.24-15.07s14.69,1.28,20.69,7.53,73.4,51.55,73.4,51.55l8.81,10.62-.77-17.4L325.17,303Z" transform="translate(-169.22 -297.55)"/><path class="cls-4" d="M237.74,320.42s25.37-15.08,33.62-4,82.17,103.41,82.17,103.41l3.56-2.22-86.66-117.4Z" transform="translate(-169.22 -297.55)"/></g><g id="Layer_2" data-name="Layer 2"><polygon class="cls-5" points="163 87.95 101.21 2.68 2.02 63.95 3.93 192.76 56.78 223.04 53.72 86.93 85.89 67.02 112.42 107.36 148.7 107.87 191.21 124.59 163 87.95"/><path class="cls-5" d="M282.55,446.23" transform="translate(-169.22 -297.55)"/><circle class="cls-5" cx="128.94" cy="127.38" r="7.95"/><path class="cls-6" d="M178.27,357.16" transform="translate(-169.22 -297.55)"/><path class="cls-5" d="M377.25,434.88" transform="translate(-169.22 -297.55)"/><path class="cls-7" d="M425.53,442.66" transform="translate(-169.22 -297.55)"/><path class="cls-7" d="M376.81,426.93" transform="translate(-169.22 -297.55)"/><path class="cls-5" d="M266.72,466.66" transform="translate(-169.22 -297.55)"/><polyline class="cls-5" points="98.14 169.92 97.47 169.13 68.53 134.29 113.34 148.68 145.51 148.68 175.12 191.06 209.85 169.87 205.25 87.4 160.31 57.27 153.55 64.72 128.94 31.27 137.85 23.57 156.74 4.68 256.31 68.51 256.31 191.06 162.87 253.19 97.51 169.1"/><path class="cls-5" d="M344.09,421.38" transform="translate(-169.22 -297.55)"/></g></svg>